<?xml version="1.0" standalone="no"?>
<!DOCTYPE svg PUBLIC "-//W3C//DTD SVG 20010904//EN"
 "http://www.w3.org/TR/2001/REC-SVG-20010904/DTD/svg10.dtd">
<svg version="1.0" xmlns="http://www.w3.org/2000/svg"
 width="64.000000pt" height="64.000000pt" viewBox="0 0 64.000000 64.000000"
 preserveAspectRatio="xMidYMid meet">

<g transform="translate(0.000000,64.000000) scale(0.100000,-0.100000)"
fill="#FFFFFF" stroke="none">
<path d="M245 631 c-92 -24 -173 -90 -215 -176 -34 -72 -34 -198 0 -270 31
-64 91 -124 155 -155 69 -33 199 -34 265 -2 71 35 114 75 151 144 31 58 34 70
33 148 0 69 -5 94 -24 135 -31 64 -92 124 -154 153 -53 25 -160 37 -211 23z
m163 -53 c59 -15 133 -84 162 -149 77 -180 -55 -381 -250 -381 -234 0 -360
278 -204 451 47 53 91 78 157 90 44 9 64 7 135 -11z"/>
<path d="M297 464 c-12 -13 -8 -42 8 -48 25 -9 46 5 43 28 -3 21 -37 34 -51
20z"/>
<path d="M290 276 c0 -97 8 -114 45 -100 12 5 15 26 15 100 l0 94 -30 0 -30 0
0 -94z"/>
</g>
</svg>
