<?xml version="1.0" standalone="no"?>
<!DOCTYPE svg PUBLIC "-//W3C//DTD SVG 20010904//EN"
 "http://www.w3.org/TR/2001/REC-SVG-20010904/DTD/svg10.dtd">
<svg version="1.0" xmlns="http://www.w3.org/2000/svg"
 width="64.000000pt" height="64.000000pt" viewBox="0 0 64.000000 64.000000"
 preserveAspectRatio="xMidYMid meet">

<g transform="translate(0.000000,64.000000) scale(0.100000,-0.100000)"
fill="#000000" stroke="none">
<path d="M65 631 c-11 -5 -29 -19 -40 -31 -19 -21 -20 -36 -20 -281 l0 -259
28 -27 c27 -28 29 -28 173 -31 168 -4 187 -1 220 35 19 21 24 37 24 80 0 51
-2 54 -22 51 -19 -2 -24 -11 -29 -51 -3 -27 -12 -53 -20 -58 -7 -5 -77 -9
-155 -9 -124 0 -143 2 -157 18 -15 16 -17 49 -17 254 0 215 2 236 18 251 15
14 42 17 158 17 76 0 146 -4 153 -9 8 -5 17 -31 20 -58 5 -40 10 -49 29 -51
20 -3 22 0 22 50 0 56 -16 86 -57 107 -25 13 -297 14 -328 2z"/>
<path d="M530 403 c0 -9 10 -27 22 -40 l21 -23 -161 0 c-152 0 -162 -1 -162
-19 0 -28 18 -31 172 -31 136 0 141 -1 125 -18 -19 -21 -22 -48 -6 -58 16 -10
99 76 99 103 0 13 -16 41 -36 63 -38 41 -74 53 -74 23z"/>
</g>
</svg>
