<?xml version="1.0" standalone="no"?>
<!DOCTYPE svg PUBLIC "-//W3C//DTD SVG 20010904//EN"
 "http://www.w3.org/TR/2001/REC-SVG-20010904/DTD/svg10.dtd">
<svg version="1.0" xmlns="http://www.w3.org/2000/svg"
 width="1056.000000pt" height="264.000000pt" viewBox="0 0 1056.000000 264.000000"
 preserveAspectRatio="xMidYMid meet">

<g transform="translate(0.000000,264.000000) scale(0.100000,-0.100000)"
fill="#FFFFFF" stroke="none">
<path d="M670 1395 l0 -525 115 0 115 0 2 305 3 304 151 -247 150 -247 56 -3
55 -3 154 258 154 257 3 -312 2 -312 115 0 115 0 0 525 0 525 -103 0 -102 0
-61 -102 c-34 -57 -121 -203 -194 -326 l-132 -223 -196 325 -197 326 -102 0
-103 0 0 -525z"/>
<path d="M8046 1908 c5 -7 86 -122 181 -255 95 -133 173 -244 173 -248 0 -3
-82 -119 -183 -258 -101 -139 -186 -258 -191 -264 -6 -10 23 -13 132 -13 l138
0 123 180 c67 99 125 178 129 176 4 -2 61 -83 127 -180 l120 -175 142 -1 143
0 -107 148 c-59 81 -147 202 -196 270 l-89 123 25 37 c14 20 95 134 180 252
l156 215 -121 3 c-67 1 -127 1 -134 -2 -6 -2 -63 -79 -126 -170 l-115 -166
-119 170 -119 169 -138 1 c-108 0 -137 -3 -131 -12z"/>
<path d="M2175 1328 c-99 -221 -185 -414 -192 -430 l-12 -29 115 3 115 3 36
83 35 82 203 0 202 0 33 -85 33 -85 118 0 c111 0 118 1 111 18 -4 10 -90 204
-192 430 l-185 412 -120 0 -120 0 -180 -402z m364 39 c34 -81 61 -149 61 -152
0 -3 -56 -5 -125 -5 -69 0 -125 3 -125 8 0 10 123 303 126 300 1 -2 30 -69 63
-151z"/>
<path d="M2920 1640 l0 -90 135 0 135 0 0 -340 0 -340 120 0 120 0 0 340 0
340 135 0 135 0 0 90 0 90 -390 0 -390 0 0 -90z"/>
<path d="M3820 1300 l0 -430 350 0 350 0 0 90 0 90 -230 0 -230 0 0 85 0 85
195 0 195 0 0 85 0 85 -195 0 -195 0 0 80 0 80 220 0 220 0 0 90 0 90 -340 0
-340 0 0 -430z"/>
<path d="M4690 1300 l0 -430 110 0 110 0 2 227 3 227 114 -182 115 -183 54 3
54 3 111 183 112 183 3 -230 2 -231 117 0 116 0 -6 197 c-4 108 -7 301 -7 430
l0 234 -101 -3 -102 -3 -146 -242 c-80 -134 -148 -243 -151 -243 -3 0 -73 110
-155 245 l-150 244 -102 1 -103 0 0 -430z"/>
<path d="M6005 1313 c-103 -230 -190 -424 -192 -430 -4 -10 22 -13 110 -13
l114 0 34 83 34 82 204 0 204 0 35 -82 34 -83 118 0 118 0 -193 428 -192 427
-120 3 -120 3 -188 -418z m373 50 l60 -148 -64 -3 c-35 -2 -93 -2 -128 0 l-64
3 61 147 c34 82 65 148 68 148 4 0 33 -66 67 -147z"/>
<path d="M6760 1640 l0 -90 135 0 135 0 0 -340 0 -340 120 0 120 0 0 340 0
340 135 0 135 0 0 90 0 90 -390 0 -390 0 0 -90z"/>
<path d="M7660 1300 l0 -430 120 0 120 0 0 430 0 430 -120 0 -120 0 0 -430z"/>
</g>
</svg>
