<?xml version="1.0" encoding="UTF-8"?>
<!DOCTYPE svg PUBLIC "-//W3C//DTD SVG 1.1//EN" "http://www.w3.org/Graphics/SVG/1.1/DTD/svg11.dtd">
<svg xmlns="http://www.w3.org/2000/svg" version="1.1" width="64px" height="64px" style="shape-rendering:geometricPrecision; text-rendering:geometricPrecision; image-rendering:optimizeQuality; fill-rule:evenodd; clip-rule:evenodd" xmlns:xlink="http://www.w3.org/1999/xlink">
<g><path style="opacity:0.788" fill="#ffffff" d="M 36.5,-0.5 C 40.8333,-0.5 45.1667,-0.5 49.5,-0.5C 55.8333,2.5 60.5,7.16667 63.5,13.5C 63.5,17.8333 63.5,22.1667 63.5,26.5C 58.2952,38.1061 49.2952,42.9395 36.5,41C 34.2865,44.1068 31.2865,45.6068 27.5,45.5C 27.5,47.1667 27.5,48.8333 27.5,50.5C 25.8333,50.5 24.1667,50.5 22.5,50.5C 22.8333,54.8333 20.8333,56.8333 16.5,56.5C 16.8342,59.188 16.1675,61.5214 14.5,63.5C 9.5,63.5 4.5,63.5 -0.5,63.5C -0.5,58.5 -0.5,53.5 -0.5,48.5C 7.13158,41.3692 14.6316,34.0358 22,26.5C 20.0605,13.7048 24.8939,4.70476 36.5,-0.5 Z M 40.5,3.5 C 54.9298,4.75124 60.7631,12.4179 58,26.5C 52.5127,35.3318 44.6794,38.4985 34.5,36C 31.6494,39.4253 27.9827,41.2587 23.5,41.5C 22.7542,42.7362 22.4208,44.0695 22.5,45.5C 21.1667,45.5 19.8333,45.5 18.5,45.5C 18.1667,47.5 17.8333,49.5 17.5,51.5C 15.2776,51.178 13.4443,51.8446 12,53.5C 11.8598,55.5213 11.6932,57.3547 11.5,59C 8.85397,59.4974 6.1873,59.6641 3.5,59.5C 3.33591,56.8127 3.50258,54.146 4,51.5C 11.6667,43.8333 19.3333,36.1667 27,28.5C 24.2294,16.031 28.7294,7.69764 40.5,3.5 Z M 47.5,13.5 C 49.337,13.6395 49.6704,14.3061 48.5,15.5C 47.7025,15.0431 47.3691,14.3764 47.5,13.5 Z"/></g>
<g><path style="opacity:0.757" fill="#ffffff" d="M 46.5,8.5 C 54.6052,9.54336 56.2719,13.3767 51.5,20C 44,21.8333 41.1667,19 43,11.5C 44.1451,10.3636 45.3117,9.36362 46.5,8.5 Z M 47.5,13.5 C 47.3691,14.3764 47.7025,15.0431 48.5,15.5C 49.6704,14.3061 49.337,13.6395 47.5,13.5 Z"/></g>
</svg>
