<?xml version="1.0" standalone="no"?>
<!DOCTYPE svg PUBLIC "-//W3C//DTD SVG 20010904//EN"
 "http://www.w3.org/TR/2001/REC-SVG-20010904/DTD/svg10.dtd">
<svg version="1.0" xmlns="http://www.w3.org/2000/svg"
 width="64.000000pt" height="64.000000pt" viewBox="0 0 64.000000 64.000000"
 preserveAspectRatio="xMidYMid meet">

<g transform="translate(0.000000,64.000000) scale(0.100000,-0.100000)"
fill="#000000" stroke="none">
<path d="M260 629 c-38 -15 -88 -68 -101 -107 -40 -120 83 -249 203 -213 82
25 139 115 124 195 -8 44 -59 104 -103 122 -37 16 -87 17 -123 3z m121 -44
c99 -52 87 -198 -19 -235 -145 -50 -240 151 -109 230 39 24 87 25 128 5z"/>
<path d="M160 228 c-69 -42 -111 -106 -113 -174 l-2 -49 275 0 275 0 -2 49
c-2 68 -44 132 -113 174 -52 31 -58 32 -160 32 -102 0 -108 -1 -160 -32z m253
-9 c46 -13 109 -67 131 -113 33 -69 42 -66 -224 -66 -266 0 -256 -3 -225 64
22 46 76 95 121 111 47 17 145 19 197 4z"/>
</g>
</svg>
