<?xml version="1.0" encoding="UTF-8"?>
<!DOCTYPE svg PUBLIC "-//W3C//DTD SVG 1.1//EN" "http://www.w3.org/Graphics/SVG/1.1/DTD/svg11.dtd">
<svg xmlns="http://www.w3.org/2000/svg" version="1.1" width="64px" height="64px" style="shape-rendering:geometricPrecision; text-rendering:geometricPrecision; image-rendering:optimizeQuality; fill-rule:evenodd; clip-rule:evenodd" xmlns:xlink="http://www.w3.org/1999/xlink">
<g><path style="opacity:0.775" fill="#ffffff" d="M 1.5,1.5 C 13.8378,1.33346 26.1712,1.50012 38.5,2C 40.6667,4.16667 42.8333,6.33333 45,8.5C 45.8316,16.5208 45.6649,24.5208 44.5,32.5C 43.914,32.2907 43.414,31.9574 43,31.5C 42.5004,24.8417 42.3337,18.175 42.5,11.5C 40.1667,11.5 37.8333,11.5 35.5,11.5C 35.5,8.83333 35.5,6.16667 35.5,3.5C 25.1667,3.5 14.8333,3.5 4.5,3.5C 4.5,22.1667 4.5,40.8333 4.5,59.5C 17.1667,59.5 29.8333,59.5 42.5,59.5C 42.3379,57.4727 42.5045,55.4727 43,53.5C 43.414,53.0426 43.914,52.7093 44.5,52.5C 45.4841,55.4281 45.8174,58.4281 45.5,61.5C 30.8333,61.5 16.1667,61.5 1.5,61.5C 1.5,41.5 1.5,21.5 1.5,1.5 Z M 38.5,7.5 C 39.2891,7.78281 39.9558,8.28281 40.5,9C 39.184,9.52811 38.5173,9.02811 38.5,7.5 Z"/></g>
<g><path style="opacity:0.974" fill="#ffffff" d="M 14.5,9.5 C 20.2055,9.17124 25.8722,9.50457 31.5,10.5C 28.6667,10.8333 25.8333,11.1667 23,11.5C 19.7485,11.4809 16.9151,10.8142 14.5,9.5 Z"/></g>
<g><path style="opacity:0.981" fill="#ffffff" d="M 7.5,15.5 C 15.5277,15.169 23.5277,15.5023 31.5,16.5C 27.5,16.8333 23.5,17.1667 19.5,17.5C 15.107,17.4907 11.107,16.824 7.5,15.5 Z"/></g>
<g><path style="opacity:0.925" fill="#ffffff" d="M 33.5,15.5 C 35.604,15.2011 37.604,15.5344 39.5,16.5C 38.5,16.8333 37.5,17.1667 36.5,17.5C 34.9704,17.3601 33.9704,16.6935 33.5,15.5 Z"/></g>
<g><path style="opacity:0.986" fill="#ffffff" d="M 7.5,21.5 C 18.1874,21.168 28.8541,21.5013 39.5,22.5C 34.1667,22.8333 28.8333,23.1667 23.5,23.5C 17.7891,23.4949 12.4558,22.8282 7.5,21.5 Z"/></g>
<g><path style="opacity:0.611" fill="#ffffff" d="M 53.5,25.5 C 60.6729,23.8389 63.1729,26.5055 61,33.5C 54.5,40 48,46.5 41.5,53C 38.3924,54.7585 35.059,55.5919 31.5,55.5C 31.5467,52.4318 32.0467,49.4318 33,46.5C 40.0359,39.6315 46.8693,32.6315 53.5,25.5 Z M 55.5,29.5 C 56.209,28.596 57.209,28.2627 58.5,28.5C 58.6495,29.552 58.4828,30.552 58,31.5C 57.2917,30.6195 56.4584,29.9528 55.5,29.5 Z"/></g>
<g><path style="opacity:0.792" fill="#ffffff" d="M 7.5,27.5 C 9.92397,27.1924 12.2573,27.5258 14.5,28.5C 13.3333,28.8333 12.1667,29.1667 11,29.5C 9.31887,29.3917 8.1522,28.7251 7.5,27.5 Z"/></g>
<g><path style="opacity:0.943" fill="#ffffff" d="M 15.5,27.5 C 23.8599,27.1688 32.1932,27.5021 40.5,28.5C 36.3333,28.8333 32.1667,29.1667 28,29.5C 23.4428,29.4915 19.2762,28.8248 15.5,27.5 Z"/></g>
<g><path style="opacity:0.986" fill="#ffffff" d="M 7.5,33.5 C 18.1874,33.168 28.8541,33.5013 39.5,34.5C 34.1667,34.8333 28.8333,35.1667 23.5,35.5C 17.7891,35.4949 12.4558,34.8282 7.5,33.5 Z"/></g>
<g><path style="opacity:0.978" fill="#ffffff" d="M 7.5,39.5 C 14.1998,39.17 20.8665,39.5033 27.5,40.5C 24.1667,40.8333 20.8333,41.1667 17.5,41.5C 13.7614,41.4864 10.428,40.8197 7.5,39.5 Z"/></g>
<g><path style="opacity:0.926" fill="#ffffff" d="M 29.5,39.5 C 31.604,39.2011 33.604,39.5344 35.5,40.5C 34.5,40.8333 33.5,41.1667 32.5,41.5C 30.9704,41.3601 29.9704,40.6935 29.5,39.5 Z"/></g>
<g><path style="opacity:0.979" fill="#ffffff" d="M 7.5,45.5 C 14.8635,45.1694 22.1968,45.5027 29.5,46.5C 25.8333,46.8333 22.1667,47.1667 18.5,47.5C 14.4348,47.4888 10.7681,46.8222 7.5,45.5 Z"/></g>
<g><path style="opacity:0.925" fill="#ffffff" d="M 7.5,51.5 C 9.60395,51.2011 11.604,51.5344 13.5,52.5C 12.5,52.8333 11.5,53.1667 10.5,53.5C 8.97041,53.3601 7.97041,52.6935 7.5,51.5 Z"/></g>
<g><path style="opacity:0.962" fill="#ffffff" d="M 15.5,51.5 C 19.5546,51.1758 23.5546,51.5091 27.5,52.5C 25.5,52.8333 23.5,53.1667 21.5,53.5C 19.0478,53.4609 17.0478,52.7943 15.5,51.5 Z"/></g>
</svg>
