<?xml version="1.0" standalone="no"?>
<!DOCTYPE svg PUBLIC "-//W3C//DTD SVG 20010904//EN"
 "http://www.w3.org/TR/2001/REC-SVG-20010904/DTD/svg10.dtd">
<svg version="1.0" xmlns="http://www.w3.org/2000/svg"
 width="64.000000pt" height="64.000000pt" viewBox="0 0 64.000000 64.000000"
 preserveAspectRatio="xMidYMid meet">

<g transform="translate(0.000000,64.000000) scale(0.100000,-0.100000)"
fill="#000000" stroke="none">
<path d="M212 549 c-48 -14 -109 -80 -123 -131 -23 -89 12 -182 88 -229 49
-31 140 -33 196 -5 l38 19 65 -64 c50 -50 66 -61 76 -51 10 10 -1 26 -51 76
l-64 65 19 38 c28 56 26 147 -5 196 -47 76 -150 113 -239 86z m131 -43 c103
-43 128 -177 48 -257 -112 -113 -296 -12 -267 146 18 94 128 150 219 111z"/>
</g>
</svg>
