<svg xmlns="http://www.w3.org/2000/svg" version="1.0" viewBox="0 0 1056 264"><path fill="#FFF" d="M67 125v52h23v-30l1-31 15 25 15 25h11l15-26 15-25 1 31v31h23V72h-21l-6 10-19 33-13 22-20-32-20-33H67v53zm738-52 18 26 17 24-18 26-19 27c-1 1 2 1 13 1h14l12-18 13-18 12 18 13 18h28l-11-15-19-27-9-12 2-4 18-25 16-22h-26l-12 17-12 17-12-17-12-17h-13c-11 0-14 0-13 1zm-587 58-20 43-1 3h12l11-1 4-8 3-8h41l3 8 3 9h12c11 0 12 0 11-2l-19-43-18-41h-24l-18 40zm36-4 6 15-12 1-13-1 13-30 6 15zm38-27v9h27v68h24v-68h27V91h-78v9zm90 34v43h70v-18h-46v-17h39v-17h-39v-16h44V91h-68v43zm87 0v43h22v-45l12 18 11 18h11l11-19 11-18 1 23v23h23v-20l-1-43V91h-20l-15 25-15 24-16-25-15-24h-20v43zm132-1-20 43 11 1h12l3-8 3-9 21 1h20l4 8 3 8h24l-20-43-19-43h-24l-19 42zm37-5 6 14-7 1h-19l6-15 7-15 7 15zm38-28v9h27v68h24v-68h27V91h-78v9zm90 34v43h24V91h-24v43z"/></svg>