<?xml version="1.0" encoding="UTF-8"?>
<!DOCTYPE svg PUBLIC "-//W3C//DTD SVG 1.1//EN" "http://www.w3.org/Graphics/SVG/1.1/DTD/svg11.dtd">
<svg xmlns="http://www.w3.org/2000/svg" version="1.1" width="64px" height="64px" style="shape-rendering:geometricPrecision; text-rendering:geometricPrecision; image-rendering:optimizeQuality; fill-rule:evenodd; clip-rule:evenodd" xmlns:xlink="http://www.w3.org/1999/xlink">
<g><path style="opacity:0.775" fill="#ffffff" d="M 28.5,3.5 C 31.3646,3.05484 33.8646,3.7215 36,5.5C 38.0391,9.74529 40.2058,13.912 42.5,18C 47.7709,19.2772 53.1042,20.2772 58.5,21C 60.4439,23.1529 60.9439,25.6529 60,28.5C 56.6667,31.8333 53.3333,35.1667 50,38.5C 49.9994,43.3448 50.4994,48.1782 51.5,53C 51.5843,57.9199 49.251,59.9199 44.5,59C 40.1667,56.8333 35.8333,54.6667 31.5,52.5C 26.6152,55.1094 21.6152,57.4428 16.5,59.5C 14.399,59.3684 12.899,58.3684 12,56.5C 12.1165,50.4757 12.4499,44.4757 13,38.5C 9.66667,35.1667 6.33333,31.8333 3,28.5C 2.05611,25.6529 2.55611,23.1529 4.5,21C 9.8958,20.2772 15.2291,19.2772 20.5,18C 23.052,13.0592 25.7187,8.22582 28.5,3.5 Z M 30.5,9.5 C 31.3764,9.36912 32.0431,9.70245 32.5,10.5C 34.4532,14.9091 36.7866,19.0758 39.5,23C 44.8533,23.9075 50.1867,24.9075 55.5,26C 52,29.5 48.5,33 45,36.5C 44.9002,42.5503 45.2335,48.5503 46,54.5C 41.6192,51.2262 36.7859,48.8929 31.5,47.5C 26.2141,48.8929 21.3808,51.2262 17,54.5C 17.9802,48.5726 18.3136,42.5726 18,36.5C 14.5,33 11,29.5 7.5,26C 12.8133,24.9075 18.1467,23.9075 23.5,23C 26.497,18.8392 28.8303,14.3392 30.5,9.5 Z"/></g>
</svg>
