<?xml version="1.0" encoding="UTF-8"?>
<!DOCTYPE svg PUBLIC "-//W3C//DTD SVG 1.1//EN" "http://www.w3.org/Graphics/SVG/1.1/DTD/svg11.dtd">
<svg xmlns="http://www.w3.org/2000/svg" version="1.1" width="32px" height="32px" style="shape-rendering:geometricPrecision; text-rendering:geometricPrecision; image-rendering:optimizeQuality; fill-rule:evenodd; clip-rule:evenodd" xmlns:xlink="http://www.w3.org/1999/xlink">
<g><path style="opacity:0.696" fill="#000000" d="M 12.5,-0.5 C 14.5,-0.5 16.5,-0.5 18.5,-0.5C 22.5,4.16667 26.8333,8.5 31.5,12.5C 31.5,14.5 31.5,16.5 31.5,18.5C 29.4558,19.7784 27.4558,19.6117 25.5,18C 22.318,14.6507 18.9846,11.484 15.5,8.5C 12.3489,11.1504 9.34894,13.9838 6.5,17C 4.21439,18.6636 1.88106,18.8303 -0.5,17.5C -0.5,15.8333 -0.5,14.1667 -0.5,12.5C 4.16667,8.5 8.5,4.16667 12.5,-0.5 Z"/></g>
<g><path style="opacity:0.765" fill="#000000" d="M 28.5,31.5 C 26.5,31.5 24.5,31.5 22.5,31.5C 20.1877,28.5211 17.5211,25.8544 14.5,23.5C 11.4789,25.8544 8.81225,28.5211 6.5,31.5C 4.83333,31.5 3.16667,31.5 1.5,31.5C 0.169701,29.1189 0.336368,26.7856 2,24.5C 6,21.1667 10,17.8333 14,14.5C 19.5675,18.0597 24.5675,22.393 29,27.5C 29.195,28.8193 29.0283,30.1526 28.5,31.5 Z"/></g>
</svg>
