<?xml version="1.0" encoding="UTF-8"?>
<!DOCTYPE svg PUBLIC "-//W3C//DTD SVG 1.1//EN" "http://www.w3.org/Graphics/SVG/1.1/DTD/svg11.dtd">
<svg xmlns="http://www.w3.org/2000/svg" version="1.1" width="64px" height="64px" style="shape-rendering:geometricPrecision; text-rendering:geometricPrecision; image-rendering:optimizeQuality; fill-rule:evenodd; clip-rule:evenodd" xmlns:xlink="http://www.w3.org/1999/xlink">
<g><path style="opacity:0.638" fill="#ffffff" d="M 26.5,0.5 C 42.6574,-0.341718 49.9907,7.32495 48.5,23.5C 50.1439,23.2865 51.6439,23.6198 53,24.5C 53.6667,36.8333 53.6667,49.1667 53,61.5C 45.91,62.1583 38.7433,62.4916 31.5,62.5C 24.2567,62.4916 17.09,62.1583 10,61.5C 9.33333,49.1667 9.33333,36.8333 10,24.5C 11.3561,23.6198 12.8561,23.2865 14.5,23.5C 12.5356,12.5213 16.5356,4.8546 26.5,0.5 Z M 26.5,3.5 C 40.9844,2.48568 47.3177,9.15234 45.5,23.5C 44.7458,19.0469 43.5792,14.7136 42,10.5C 37.8604,5.78864 32.6938,4.28864 26.5,6C 24.3762,7.12173 22.5429,8.62173 21,10.5C 19.4208,14.7136 18.2542,19.0469 17.5,23.5C 15.6405,14.558 18.6405,7.89129 26.5,3.5 Z M 29.5,7.5 C 39.1288,8.47577 43.1288,13.8091 41.5,23.5C 34.8333,23.5 28.1667,23.5 21.5,23.5C 20.4998,16.1662 23.1664,10.8329 29.5,7.5 Z M 11.5,26.5 C 24.8333,26.5 38.1667,26.5 51.5,26.5C 51.5,37.5 51.5,48.5 51.5,59.5C 38.1667,59.5 24.8333,59.5 11.5,59.5C 11.5,48.5 11.5,37.5 11.5,26.5 Z M 30.5,35.5 C 32.8184,35.8184 34.1517,37.1517 34.5,39.5C 33.192,42.7302 32.192,46.0636 31.5,49.5C 30.808,46.0636 29.808,42.7302 28.5,39.5C 28.7517,37.9271 29.4183,36.5938 30.5,35.5 Z"/></g>
<g><path style="opacity:0.579" fill="#ffffff" d="M 28.5,33.5 C 33.5113,32.3289 36.5113,34.1623 37.5,39C 36.1138,42.6935 35.2805,46.5269 35,50.5C 32.6667,53.1667 30.3333,53.1667 28,50.5C 27.7195,46.5269 26.8862,42.6935 25.5,39C 25.8627,36.8077 26.8627,34.9744 28.5,33.5 Z M 30.5,35.5 C 29.4183,36.5938 28.7517,37.9271 28.5,39.5C 29.808,42.7302 30.808,46.0636 31.5,49.5C 32.192,46.0636 33.192,42.7302 34.5,39.5C 34.1517,37.1517 32.8184,35.8184 30.5,35.5 Z"/></g>
</svg>
